PathFileType	4	(X/Y/Z)	Patient4_TMGait_0pt3_01_left_14.trc.trc
DataRate	CameraRate	NumFrames	NumMarkers	Units	OrigDataRate	OrigDataStartFrame	OrigNumFrames
53.030303030303	53.030303030303	6	33	mm	53.030303030303	89	       141
Frame#	Time	Sacral			L.Shoulder			Chest			R.Shoulder			Neck			R.ASIS			L.ASIS			R.Thigh.Superior			R.Thigh.Lateral			R.Thigh.Inferior			R.Patella			L.Thigh.Superior			L.Thigh.Lateral			L.Thigh.Inferior			L.Patella			L.Shank.Superior			L.Shank.Lateral			L.Shank.Inferior			R.Shank.Superior			R.Shank.Lateral			R.Shank.Inferior			R.Heel			R.Midfoot.Superior			R.Midfoot.Lateral			R.Toe			L.Heel			L.Midfoot.Lateral			L.Midfoot.Superior			L.Toe			L.Elbow			L.Wrist			R.Elbow			R.Wrist			
		X1	Y1	Z1	X2	Y2	Z2	X3	Y3	Z3	X4	Y4	Z4	X5	Y5	Z5	X6	Y6	Z6	X7	Y7	Z7	X8	Y8	Z8	X9	Y9	Z9	X10	Y10	Z10	X11	Y11	Z11	X12	Y12	Z12	X13	Y13	Z13	X14	Y14	Z14	X15	Y15	Z15	X16	Y16	Z16	X17	Y17	Z17	X18	Y18	Z18	X19	Y19	Z19	X20	Y20	Z20	X21	Y21	Z21	X22	Y22	Z22	X23	Y23	Z23	X24	Y24	Z24	X25	Y25	Z25	X26	Y26	Z26	X27	Y27	Z27	X28	Y28	Z28	X29	Y29	Z29	X30	Y30	Z30	X31	Y31	Z31	X32	Y32	Z32	X33	Y33	Z33	

89	27.569428571429	751.672237962008	991.602405387866	492.140174717187	950.302560625763	1434.905207617206	365.464156419103	1010.379083266277	1361.870628296119	544.978202339119	882.046441457115	1426.381311690330	693.492326571046	895.648990939831	1489.911311287504	518.302389590600	960.276072108130	939.971122090123	651.944338399800	992.604545101752	957.611820371055	378.556162450340	1030.629327986422	749.080338935808	622.490023375898	958.424581308349	629.613173392180	673.389408944607	1050.247444678968	587.801398189069	602.066726619854	1061.786850313710	497.175620457994	610.433255492349	1006.009210276993	726.950152436163	404.404131732417	907.083905862783	621.258560021940	331.358808961490	972.206684463161	530.641927980110	400.148585083859	957.624478401288	451.606185324498	400.268492340868	898.350845664499	394.137095253748	388.676989678373	772.034807084833	327.462934380646	329.966552288638	771.552897064682	200.874966673757	391.869353304659	1031.271925843044	406.027404803677	614.606579704398	954.236373066381	302.629952526414	669.680050969028	1001.995067779702	207.554464721522	613.065697170037	870.403547114766	43.154397532116	573.897423331872	1038.340176492635	98.673238089713	624.482818839253	947.332617542455	36.639347770741	654.828343144889	1155.039020669261	48.322247261380	662.059850883337	592.340823352326	92.745198687250	418.556046089308	666.623988460582	64.936143576469	345.133996306793	761.972658201152	104.306723209501	373.593904525177	870.274712286473	36.447791245978	356.959337798306	1082.861343699318	1129.225203165318	220.256739166141	1333.000661454162	1137.585832521862	283.156866088836	775.644649990687	1086.414151048410	777.564451429109	874.377169616301	847.289023603550	814.424116845727	
90	27.588285714286	752.611123609374	992.518832430538	498.652318711429	949.426848309300	1435.940389456113	369.252676235018	1011.095699653867	1363.356185194179	548.453714572097	883.907885527209	1427.931840873808	697.823208718463	895.878786883589	1491.147878735078	522.372268573064	962.207436333709	941.279535219254	656.899879971817	992.658798953846	958.630020330596	383.545268464105	1030.032178899104	748.539263682489	626.741340133771	956.084539847692	629.646489018278	676.811259680009	1046.987156843699	587.128159017549	604.935357695561	1057.169507407095	496.583248104873	612.292174847889	1010.234907145813	729.138603820286	408.856211175892	914.531641697365	621.753626279244	335.238818037099	982.445343171930	531.955412561035	403.381078624082	968.707314334907	451.584884109442	402.011443849540	907.228374144861	394.860597187327	390.377478920468	778.421312762617	332.819047821608	332.129292619243	774.857328832815	205.314091762198	391.705897381733	1026.627304678839	405.686352435669	616.126327859991	949.818912455185	302.132777166483	670.883080925028	996.885978750685	207.228432931376	613.426247989565	864.889593925898	43.225300784826	573.914147943241	1032.876264379700	98.429416820198	624.475656401457	941.769928067144	36.643347008419	654.826007297078	1149.616270938658	47.506686551332	662.166915191311	592.430542879962	105.307956441882	418.368474482333	664.545248315149	72.751253121839	345.072106217000	761.808687351618	106.598083884295	372.876117132139	864.632146852400	35.674299123075	357.193854554742	1076.271923717926	1126.273592955802	225.474781494819	1327.035002279423	1127.305188668652	287.360422210477	784.764976525577	1086.224792313966	785.839480807016	894.909596661888	852.347566069913	822.858384403977	
91	27.607142857143	753.345449022102	993.376083690253	505.282926430548	948.247075981856	1436.748740731091	372.742990637268	1011.702546254706	1364.768077672772	551.601338440229	885.840166447542	1429.517728189237	701.906370787332	896.005793908482	1492.282571036798	526.143543717434	964.101180830982	942.467202456715	661.769665646547	992.422676436331	959.541766106588	388.430807776963	1029.321875632378	747.964423534917	630.767752051358	953.780178778831	629.653240237681	680.226086811683	1043.640132010751	586.434674898617	607.689805624902	1052.481085107326	495.973201337947	614.125811282337	1014.810148789988	731.575127162964	413.380260695550	922.763500027194	622.376185339113	339.140703856976	993.527517571462	533.643587721601	406.818146362783	980.792861879264	451.969933720983	404.004711793219	917.222460780124	395.832170967576	392.243708893395	786.105382550942	338.604842116388	334.329335743106	779.199063984134	210.375945235186	391.690129412103	1021.911601536259	405.336719430387	617.649323782036	945.313252525900	301.639306407087	672.121457973520	991.707562737947	206.903243861306	613.797294814158	859.317758865666	43.279866709279	573.916545161362	1027.354460501295	98.200860487213	624.463936479104	936.155082326139	36.644628473223	654.810858704823	1144.133308644966	46.706558916050	662.267669402917	593.748442145942	119.413018591691	418.231784348888	663.292853865471	81.913519928863	345.057361042499	762.314586537814	109.497577410445	372.300140378852	858.958540674963	34.702123630374	357.489170611425	1068.662393429402	1122.718928933795	230.825080672584	1319.934037203774	1115.146912804196	291.260147197929	794.168837683647	1086.357279383756	794.159588763387	915.583856360693	858.328512093550	830.916520448506	
92	27.626000000000	753.846239176956	994.136994428834	511.991141130924	946.765532718966	1437.292012918107	375.957637986696	1012.192473591241	1366.037217795708	554.426887532828	887.843640561803	1431.068815675345	705.752640212090	896.041214740735	1493.264942406330	529.640205763977	965.923153195181	943.488069819072	666.503174794170	991.868756147927	960.308506820586	393.142884530672	1028.555207027163	747.367419310491	634.573457734692	951.609939844569	629.619901278108	683.626080453545	1040.360756908194	585.735104723115	610.367460232463	1047.915327600193	495.337342508634	615.993556647771	1019.642588323467	734.257691065382	417.960061074732	931.624320777780	623.175754233240	343.075357573941	1005.229096620117	535.748498662102	410.497764144312	993.663811401895	452.814577878077	406.335479163710	928.150048860905	397.090880147006	394.343618017849	794.948371459075	344.784223245663	336.593188738414	784.490782645704	216.037336004410	391.902339142872	1017.274242343871	404.963626469883	619.214208055435	940.805820056724	301.162480467925	673.421308260119	986.530932051660	206.581382621300	614.216935808815	853.696643594539	43.329370857921	573.920339051117	1021.792550114638	97.999578777393	624.469719519894	930.502015911917	36.649056886317	654.797702977144	1138.602037998941	45.947865931342	662.365218975568	596.306750566503	134.828783783985	418.212404221560	662.947566482074	92.366251343160	345.130412839033	763.481231250327	113.114216112974	371.930293674026	853.394164588220	33.568204486932	357.806604034644	1060.117784972715	1118.638757854979	236.300931331931	1311.602307589501	1101.016574761949	294.852672028151	803.811680103356	1086.747501594534	802.443791377563	936.312859329621	865.174365680244	838.551636155729	
93	27.644857142857	754.094049384662	994.761103257025	518.725038753721	944.992208741375	1437.542117559990	378.923438323844	1012.558801253484	1367.099545179532	556.942008306760	889.912662685193	1432.515701966554	709.375576870109	895.996948603494	1494.050808818997	532.891177499068	967.631386842150	944.303216153717	671.058386702509	990.985450475110	960.897175304151	397.624482816398	1027.791186253265	746.754518112144	638.191999947429	949.656123586440	629.525918835098	687.003779868372	1037.301490557682	585.036619289744	613.016876806990	1043.663599665080	494.659287373560	617.956597311002	1024.616566714419	737.179473729436	422.585603334764	940.930975386441	624.192948397751	347.047160909644	1017.309499885358	538.296149817866	414.433438533728	1007.080864881061	454.149483959133	409.055824077319	939.793299784015	398.662979672406	396.725002262499	804.753412305376	351.293740031287	338.959435931129	790.619653755792	222.225976262773	392.418964279852	1012.860806494553	404.546691948614	620.857387938866	936.382468947708	300.708927191198	674.802474695887	981.425586831515	206.261398506041	614.719350689617	848.038457426114	43.384954724226	573.937933673298	1016.211107974405	97.834128159734	624.513968116527	924.826459737801	36.661409531286	654.799376156419	1133.036297542323	45.245821363403	662.464107384291	600.062760233758	151.158439923048	418.405949466107	663.578514807868	103.925443619686	345.346019905267	765.318262154554	117.514551798502	371.822390321434	848.170880765128	32.360809515908	358.082916895102	1050.756442898354	1114.134285068108	241.883920037852	1301.926093925206	1084.876920544239	298.143746044892	813.659761532622	1087.320863176723	810.608011907959	957.019691516291	872.811776662405	845.722974501283	
94	27.663714285714	754.079661680638	995.207455368432	525.422139085841	942.948488983474	1437.480821343343	381.669024563619	1012.796873946175	1367.898958529958	559.164481728102	892.034129474295	1433.793246943069	712.789070820317	895.885284647584	1494.603870858462	535.926995512077	969.180246878679	944.881944588642	675.404637373636	989.778545918676	961.281857517313	401.837098455909	1027.087894306034	746.127508489451	641.672796612228	947.983427768534	629.345761894693	690.349293770199	1034.601703238364	584.338702190036	615.686115617731	1039.900107982002	493.915969948053	620.066136240234	1029.593619880153	740.320596289548	427.247341380178	950.474042634043	625.451209929075	351.046378932510	1029.517501703475	541.289178884433	418.602169600620	1020.787908870605	455.978856428282	412.166370799950	951.908393607918	400.555937595263	399.400941660063	815.273306226125	358.031443950303	341.472207206567	797.461471366148	228.807588481708	393.301344063850	1008.802046591769	404.060856030995	622.605630395620	932.123073041516	300.278501868071	676.273629754115	976.453267019398	205.937114143766	615.329010906317	842.356476060444	43.456283448579	573.977368324025	1010.630577487671	97.709800845838	624.613575642599	919.143308173935	36.685370066381	654.825854906810	1127.449315347524	44.605533377930	662.569000537661	604.927827490448	167.827534590806	418.931279840968	665.246954289091	116.258302278447	345.768532948993	767.869235931291	122.692626026357	372.014517275588	843.625267897616	31.220926384034	358.229602238204	1040.717719859302	1109.317829380978	247.542340963701	1290.766814848918	1066.767676508731	301.145481809542	823.692597702567	1087.995052366871	818.566947561610	977.639040885171	881.152169562468	852.393677474560	
